<svg xmlns="http://www.w3.org/2000/svg" viewBox="0 0 192 192" width="192" height="192">
  <!-- Background -->
  <rect width="192" height="192" rx="48" fill="#5E35B1" />
  
  <!-- Glasses Icon -->
  <g fill="#FFFFFF" transform="translate(36, 66)">
    <!-- Left lens -->
    <path d="M30,0 C13.4315,0 0,13.4315 0,30 C0,46.5685 13.4315,60 30,60 C46.5685,60 60,46.5685 60,30 C60,13.4315 46.5685,0 30,0 Z M30,10 C41.0457,10 50,18.9543 50,30 C50,41.0457 41.0457,50 30,50 C18.9543,50 10,41.0457 10,30 C10,18.9543 18.9543,10 30,10 Z" />
    
    <!-- Right lens -->
    <path d="M90,0 C73.4315,0 60,13.4315 60,30 C60,46.5685 73.4315,60 90,60 C106.5685,60 120,46.5685 120,30 C120,13.4315 106.5685,0 90,0 Z M90,10 C101.0457,10 110,18.9543 110,30 C110,41.0457 101.0457,50 90,50 C78.9543,50 70,41.0457 70,30 C70,18.9543 78.9543,10 90,10 Z" />
    
    <!-- Bridge -->
    <rect x="50" y="25" width="20" height="10" rx="5" />
  </g>
  
  <!-- Plus sign in orange -->
  <g fill="#FF9800" transform="translate(140, 40)">
    <rect x="0" y="8" width="24" height="8" rx="4" />
    <rect x="8" y="0" width="8" height="24" rx="4" />
  </g>
</svg>
