<svg xmlns="http://www.w3.org/2000/svg" viewBox="0 0 512 512" width="512" height="512">
  <!-- Background -->
  <rect width="512" height="512" rx="128" fill="#5E35B1" />
  
  <!-- Glasses Icon -->
  <g fill="#FFFFFF" transform="translate(96, 176)">
    <!-- Left lens -->
    <path d="M80,0 C35.8172,0 0,35.8172 0,80 C0,124.1828 35.8172,160 80,160 C124.1828,160 160,124.1828 160,80 C160,35.8172 124.1828,0 80,0 Z M80,26.6667 C109.4552,26.6667 133.3333,50.5448 133.3333,80 C133.3333,109.4552 109.4552,133.3333 80,133.3333 C50.5448,133.3333 26.6667,109.4552 26.6667,80 C26.6667,50.5448 50.5448,26.6667 80,26.6667 Z" />
    
    <!-- Right lens -->
    <path d="M240,0 C195.8172,0 160,35.8172 160,80 C160,124.1828 195.8172,160 240,160 C284.1828,160 320,124.1828 320,80 C320,35.8172 284.1828,0 240,0 Z M240,26.6667 C269.4552,26.6667 293.3333,50.5448 293.3333,80 C293.3333,109.4552 269.4552,133.3333 240,133.3333 C210.5448,133.3333 186.6667,109.4552 186.6667,80 C186.6667,50.5448 210.5448,26.6667 240,26.6667 Z" />
    
    <!-- Bridge -->
    <rect x="133.3333" y="66.6667" width="53.3333" height="26.6667" rx="13.3333" />
  </g>
  
  <!-- Plus sign in orange -->
  <g fill="#FF9800" transform="translate(372, 106)">
    <rect x="0" y="22" width="64" height="20" rx="10" />
    <rect x="22" y="0" width="20" height="64" rx="10" />
  </g>
</svg>
